<svg xmlns="http://www.w3.org/2000/svg" version="1.0" viewBox="0 0 150 150">
  <defs>
    <clipPath id="a">
      <path d="M4.8 0H145v150H4.8Zm0 0"/>
    </clipPath>
  </defs>
  <g clip-path="url(#a)">
    <path fill="#53453c" d="M144.8 11.4c-.3 1.5-1.4 2-2.9 1.3-1.3-.6-1.4-2-2.4-1-2.3 2-59.5 71-57.4 73.6 3.9 4.7 54.3 61 54.8 61.6.6.9-.8 2.5-1.9 1.8-1.6-1-24.9-27-25-27.2-34.8-39-29.9-36-33.2-32C26 150.3 35 139 28.4 148.4c-2.3 3.3-4.5 1-3.1-1 10-14 47.5-57.3 51-62 2-2.8-32-34.4-62.3-73-2.4-3-2.9-4.8-4.6-2.8-2.4 2-5 0-4.5-2.5 1.1-4.3 7-9.2 9.2-5.8 3 4.3-2.9 4.3-.6 6.4 32.5 38.6 64.3 73 65 73.6 1.8 1.9 28.7-37.6 52.6-63.9 9.7-10.6 6-7.5 6-11.6 0-6.3 9.5-3.3 7.7 5.7Zm0 0"/>
  </g>
  <path fill="#9fc5f8" d="M78.5 132.1A53.5 53.5 0 0 1 26 59.8a57.7 57.7 0 0 1 88-25.5 53.7 53.7 0 0 1 21 42.5c-2 40.1-38.9 57.1-56.5 55.3Zm0 0"/>
  <path fill="#22a2e3" d="M47 113.7c-1.2-.5-5.5-2.4-12.2-10.6-4.1-5-3.8-4.3-6-8-.2-.4.7-1.5 1.3-.9 2.2 2.3 6.6 10.4 16.5 17 1 .6 1.6.8 1.6 2 0 .3-.7.7-1.2.5Zm52.2-78.3c-1 .8-.2 2.7-4.6 14.5a147 147 0 0 1-23.1 39.8c-1.4 1.4-1.2-1.8-6-1.7-.6 0-1.4.3-1.4.9 0 .8 1-.1 4.6 1.5 2.3 1.1 1 2-2.7 6.2-1.9 2.2-9.5-18.4-8-42.2 1.2-20.9 8-28.7 4.5-27.1-4 1.7-13 41.4.3 69.5.8 1.6 1.1 2.7-.4 3.6-.9.4-1.6-.1-2.2-1-18-26.3-10-60.1-10-60.2 0-1.2-1.3-.6-1.5-.3-5.6 16-.5 54.6 11.7 63.3.3.2.2.4 0 .7-1.8 2.5-2 3.1-9.3-6.4A73.1 73.1 0 0 1 36 53c0-.8 0-1.8-.8-1.7-3 .3-1.8 24.2 13.2 45.2 7 9.9 9.5 9.3 7.6 11-6.3 5.7-9.4 7.5-9 8.9.9 5.3 36.7-27.6 50.5-68.8 1.3-3.6 4.7-14.5 1.7-12.1Zm-8 44.8c21-33.7 15.6-44.4 14-36.5-2.8 14.6-13.6 33-22.1 45.2C68.3 110 50.7 121.5 55.8 121c1.5.1 20.7-17 35.4-40.8Zm23.7-32.7c-1.3 3.7-1.2 6.3-5.3 15.8-14.9 34.5-37.6 53-44 60-.7.9.5 1.9 1.3 1.3a162 162 0 0 0 49.6-76c-.2-2.1-1.4-1.7-1.6-1Zm7.8 8.3c-1.8-4.4-5.6 29.9-42.4 65-5.2 5-5 5.9-3.5 5.8 17.7-10.3 49-63.8 46-70.8Zm-15.5 50.6c13.9-18 23.3-39 20.6-39.8-1.9-.6 0 2.9-9.8 20-18 31.3-33.4 36.9-29.7 38.6 3 0 16.6-15.9 18.9-18.8ZM130.1 82c-.1-.5-1-.7-1.2-.4-1.4 2.1-2.2 6.6-9 16.7-11.2 16.5-21.6 23-19.2 23.8 4.3 0 30.8-33.2 29.4-40.1Zm-78 27.4c.5-.3.1-1.4-1-2.2a74.4 74.4 0 0 1-22-33.6c0-.3-.5-2.9-1.6-2.5-2.5.6 5 19.3 16.9 32.4.7.7 6.7 7 7.8 6ZM69 29.5c3.8-1.8 14-2.5 22.7 1.5 2.8 1.2 6.7 3.7 6 1.3-.5-1.9-10.9-6.2-19.3-6-13.4 0-13.2 5-9.5 3.3ZM64.3 38c.7 1.5 2 .7 3 .5C82 36 93.6 45.2 94.7 43.3c2-3.6-28.7-10.6-30.5-5.3Zm25 14.9c.5-.1.8-.6.7-1-1.4-4.3-23.5-7.8-26.3-4.2-.3.4 0 1.1.4 1.2 1.3.2.8-.5 6.7-.7 12 0 17.4 4.8 18.5 4.7Zm-4 7.8c-1.2-4.1-22.2-7-22.6-4-.1 1.2 1.2.8 4.6.8 12.4-.8 19.3 7.3 18 3.2ZM61 66c-.4.4 0 1 .4 1 2.3.3 3.5-1.6 10.2.2 5.9 1.6 7.6 3.4 8.9 3.8.3 0 1.3-.5.9-1.2-2-3-15-7.2-20.4-3.8Zm16.2 11.9c.7-2.6-15-6.5-14.3-3.2.2.7.7.6 1.8.6 6.3-.4 12 4.7 12.5 2.6Zm-13.1 4.7c.2.6.8.6 1.5.6 3.2.4 6.3 1.8 6.3 1.8 1 .2 2.7-2.6-6.4-3.7-.4.2-1.7.4-1.4 1.3Zm0 0"/>
  <path d="M27.8 65.6h.4l8 5.2 3.5.8c.3 0 .4.2.3.4l-.4 2.6a.4.4 0 0 1-.5.4L36 74l-.6.1-6.1 1-1 .2a17.4 17.4 0 0 1-1.6.2h-.3v-.3L26 73v-.2l.3-.3 5.3-1-.9-.5v-.1L27 68.7c-.2-.2-.2-.3-.2-.5l.7-2.2.2-.3Zm.5.4h-.1l-.1.5-.1.2h-.1v.4l-.1.1a1.6 1.6 0 0 0-.4.8l.1.1h.2a3.3 3.3 0 0 1 .1-.4l.2-.3V67l.1-.1.2-.3.2-.4.1-.1V66Zm-1.6 8.3v-.2l-.2.2v.3h.2Zm-.2.5Zm.2-1v.2-.1Zm4-4.3c-.1.1-.1.2 0 .2h-.1.1v-.2Zm1 2v-.2.2Zm.2.2.1.1v-.4.3Zm.5 0v-.4l-.1.1v.2Zm.3-.2h.1v-.2Zm0 .9v.1h.1Zm.7-2.4h-.1v.2h.2V70Zm-.3 2v-.2.4Zm.2 0v-.3.1h-.1v.2Zm0 .2h.1Zm1-1.8-.2-.2h-.4v.1h.1v.1h.1l.1.1h.2v-.1c.1 0 .1-.1 0-.2v.2Zm0 .4v-.1Zm3.9.7h-.7l-.3-.2h-.7l-.3-.1H36l-.2-.1h-.2l-.2-.1v.3l1.2.3h.3a1.4 1.4 0 0 1 .7.1l.6.2h.5c0 .1 0 .1 0 0h.2v-.2Zm9.2-16.9.2.2v.3L46 57.7c-.1.2-.3.2-.5.1l-2.2-1-1 2.8 1.3 1.3c.2.2.2.4 0 .5L42.2 64l-.3.2-.4-.1a125.5 125.5 0 0 1-5.5-6.4 128 128 0 0 1-3-4.4l.2-.4a26.8 26.8 0 0 0 .7-1.3l.2-.5c.4-.5 1-.7 2-.6a18.2 18.2 0 0 1 3.5 1.1l7.9 3Zm-13.8-1.2h-.1Zm1.7-1.8H35h.2Zm.2.3h-.2Zm-1.3 2h.2l-.1-.1Zm1.4-2.2v-.1l-.1.2h.1v-.1Zm0 .1h-.1Zm.3-.2v.1l.2-.2H36v-.1l-.1.2Zm.4.3v.1h.1l.1-.1v-.1h-.2Zm-.7 1.5v-.1Zm.3-.1v-.1h.1V53h-.1v.1Zm1.1-1.4v.2h.1V52c.1 0 .1 0 0 0 0-.1 0-.1 0 0ZM35.4 56v.2h.4a4.3 4.3 0 0 1-.3-.2Zm1-1Zm-.3 1.5-.2-.2Zm1.1-2v.2h.2v-.2h-.1Zm1.2-1.9v-.1.1Zm.4 0h-.2v.1Zm.9 2.6-.9-.3-1.2-.5 2.2 2.5.8-1.3Zm-2-.2-.1-.2Zm1-1.7h-.1Zm-.4 2.7-.1-.2-.1-.1-.3-.4v.3l.2.3.1.1v.1l.1.1.3.4.2.2.2.3.1.3h.1l.1.2.2.2.1.3h.2v-.2l-.2-.3-.2-.2V57l-.2-.2-.2-.3-.4-.4Zm1-2.5Zm.4-.3v.1Zm-.4.9V54Zm1.1-.5v-.2Zm-.6 1-.1.1Zm.5-.4h-.2v.2l.1-.1s0 .1.1 0h.1Zm.2-.5v-.1Zm-.1.2v-.1.1Zm.3-.1h.1v-.3l-.1.1v.1Zm0 .6v-.2h-.1v.2Zm-.5.6.1-.1Zm1-1.4H41l-.1.1v.3h.4l.1-.2h-.1l-.2.1v-.3Zm-2.6 4 .2.2v-.1h-.1Zm2.1-3.2v.1h.1Zm.2-.2.2.2-.1-.2Zm-.1.5-.1.1h.1l.2-.2v-.2Zm0 .3h.1Zm.5-.1H41v.1h.2v-.1Zm-.2.2Zm.7-.8v.1Zm.2.3h-.2c-.2 0-.3.1-.3.2h.3Zm-.7.8Zm1.2-1.5-.1.1Zm-.7 1.3V55h-.1Zm-.2.4Zm-.3.7Zm.5-.3Zm.4-.5v.1l.2-.1v-.2h-.2Zm.7 0v-.2Zm-.1.2h.2l-.2-.2Zm.5-.7h.2v-.1l.1-.1h-.4ZM41 58.8l.2-.1Zm.2.5h-.4v.4h.4v-.1l.1-.2Zm1.5-3h.1Zm1.3-1.9h-.1Zm-1.1 1.8h.1l.1-.2Zm-.5.8Zm4-1.4v-.1l-.4-.2-.4-.2h-.2l-.1-.1H45l-.2-.1h-.2l-.2-.1v-.1l-.2-.1v.4l-.2-.1c-.1 0-.1-.1 0-.2v-.1h-.2a.5.5 0 0 0-.2.4v.2h.5v.1c-.1.1-.1.2 0 .2v.1h.2v.2h.4c.1-.1.2-.1.2 0a1.3 1.3 0 0 0 .1-.3h.4v.1h1.1Zm-5.9 5.1Zm.8-.5s0-.1-.1 0Zm2.9-4.4H44h.1Zm-2.9 5v-.1H41v.1Zm2.4-4.2.1-.1Zm.4-.4v.1ZM41.5 61v-.4h-.2c.1.2.1.3 0 .4h.2Zm2.6-4.5.1.2v-.2Zm-1.8 4h-.1v.1Zm-.3.8h-.2v.2l.1-.1Zm.2-.2c-.1-.1-.1-.1-.2 0Zm2.7-4.5h-.1v.1Zm1 .3h-.4l.2.1h.1Zm10.7-12.5.2.1v.4l-.9 2.5-.2.2h-.3a64.6 64.6 0 0 0-3.8-1.7l-.5-.3-.7 1 2.1 2.8c.2.2.1.4 0 .6l-2 1.5h-.3l-.3-.1-6.8-10.2v-.5l2.2-2.1.4-.4c.4-.4.7-.7 1-.8.4-.4.8-.7 1.2-.8a2 2 0 0 1 2-.1c.8.2 1.4.7 2 1.4.4.5.7 1.1 1 1.8a4.7 4.7 0 0 1-.1 3Zm-9.8-5.7h-.2v.1Zm0 .2Zm.7-.5Zm-.2.3v-.1Zm-.3.2h.1Zm-.3.4.1.1h.1l-.2-.1Zm1.7-1.3h.1v-.1Zm-.2.2v.2-.2Zm-4 3.3H44Zm3.2-2.6h.2-.2Zm.3-.2h.1Zm1.3-1v.1Zm-2 1.9h-.1Zm1.1-.9Zm-.5.5V39Zm.3-.2v.2Zm.4-.2-.2.1h.2Zm.3-.1v.1-.1Zm.9-.5h-.2l.1.1Zm-.8.5v.1h.2l-.1-.2Zm-2 1.6.2.1h.1-.1v-.1Zm2.2-1.5v.1Zm.9-.3v-.2l-.2.2Zm.1-.1h.2-.1Zm-1.5 5.4 1.1-1.4c.2-.4.3-1 .2-1.5-.1-.5-.2-.8-.4-1a1 1 0 0 0-.3-.2h-.5l-.2.1-.5.4-.9 1.2Zm1.3-4.7h-.1Zm.1.2v-.1.2Zm.2-.2s.1 0 0-.1Zm1.3-.7h.2v-.1l-.2-.1h.1Zm-1.2.9Zm.2.1h-.1Zm1.3-1 .2.4Zm.5.7v-.2h-.2v-.1l.8 1.1-.1-.2-.2-.2-.1-.1v-.1L52 39Zm-1.7 1.2h-.2Zm.3 0h.1Zm-.2.4h-.1v.2ZM47 44h-.2l-.2.2h.2l.1-.1Zm3.4-2.6h.2V41h-.2v.1Zm-3.8 2.9V44Zm.5-.1h-.2l-.1.1v.2Zm3.8-3Zm-.9 1v.1h.2l.1-.1H50Zm.7-.4h-.1v.1Zm-3.8 2.8.1.2Zm3.6-2.4-.1-.2h-.1l.2.2ZM47 44.8Zm.4-.3h.1Zm2.1-1.6h.2Zm1-.6-.2.2h.2l.3-.2h-.1l-.2.1Zm.4 0h-.1v.1Zm-.2.5v-.4h-.1v.1ZM47 45.2Zm4.2-3H51v.1Zm-.3.3s-.1.1 0 .1ZM47.6 45v.2-.2Zm2.1-1.4c-.1 0-.1 0 0 0Zm1.4-1v.1-.2Zm0 .2h-.2Zm.4-.3h-.4l.2.2.1-.1ZM49.9 44Zm1.6-1v-.2Zm-1.4 1.3v-.1Zm1.5-1.2v.2h.2v-.1Zm.2.1v.1h.1v-.1Zm.3 0 .1-.1H52l.1.2Zm-.3.2v.1-.1Zm-1.2 1.4Zm2.2-.7h-.1Zm1.8-.3Zm.2 0h-.1v.2h.3l-.2-.1Zm.3.3Zm.7.5c-.1 0-.1 0 0 0v.1h.1Zm-.2.5.1-.2h-.1l-.1.1v.2h.1Zm-4.7 5.1v-.1.1Zm15.9-22.5h.4l.2.3a71 71 0 0 0 1.6 7l.3.8h-.1l-.2.1-.2.1h.5l1.4 4.4c0 .2 0 .4-.3.4l-2.5.9-.4-.1-.6-.7-2.8-3.5.2-.2h-.2L63 35.6l2 6.8c0 .2 0 .4-.3.5l-2.6.8h-.3l-.2-.3-.7-2.9-.1-.4-1.3-5.2-1-4c0-.3.1-.4.3-.5l1.8-.6c.4-.2.8-.2 1.2 0 .3 0 .7.3 1 .7l2.9 3.6-1.3-5.1c0-.3 0-.4.3-.5Zm-6 4.9h-.1.1Zm0 1h-.1Zm.4 0v-.1h-.1v.1Zm.9-.3h-.2v.1h.1Zm-.4.3.1-.1h-.5v.1h.3Zm.3 0v-.1h-.2Zm0 0 .2-.2h-.1Zm-.5.1h.2-.2Zm0 1.1h.2Zm.9 0h.2v-.1h-.2Zm.4.4h-.1l.1.1Zm1.4-.5v.2H64l.2-.2Zm-1.6.7v-.1h-.2v.1Zm1.3-.3Zm-1.7.5s0 .1.1 0Zm2-.5Zm-1.2.3h.2Zm-.4.3h.2Zm-.5.4V36h-.4v.2Zm2.3-.7v-.1Zm0 .2h-.2ZM66 35Zm-4 1.4.1-.1H62Zm.3-.1h-.1Zm2.3-.5-.1-.3v.1l-.1.1v.1Zm-.7.3h-.1.1Zm-1.7.5v.2h.1Zm4.9-1.5Zm-4.4 1.6v.1h.2v-.2Zm-.9.3h.2Zm3-.7c0 .1.1.1.2 0Zm.7 0h-.3l.2.2Zm-.6.4v-.1h-.1v.1Zm0 0 .3-.1H65Zm2-.7Zm-1.3.5h-.2ZM61.8 38h.2v-.1l-.2.1Zm3-1h-.2l-.1.1h.2Zm-2.5.9h.1v-.1Zm.3.2H62v.1Zm2.6-.6-.2-.1Zm1.8-.6h.1Zm-1.8.7.1-.1h-.1v.1Zm.8-.2v-.1.1Zm-3.2 1h-.2Zm2.6-.6h.1v-.1Zm-2.6.8v.1h.1v-.1Zm2.4-.7v.1h.1Zm.9 0H66l.1.1h.2v-.1h.1-.4Zm-.5.2h-.2.1Zm-2.8 1h-.1v.1Zm3.7-1h-.2v.1h.1l.2-.1.1-.1h-.2Zm.4 0v-.2l-.1.1Zm-1.5.4h.2c0-.1-.1-.1-.2 0Zm-1.7.6v.1h.1V39Zm2.7-.7h.3v-.1h-.3Zm-.5.2v-.1Zm.4-.1H66Zm1.2-.1h.2l-.1-.1Zm-.6.5-.1-.3h-.1Zm-1 0h.2Zm.2.2V39H66l.1.1Zm1.4 0 .2-.2h-.3v-.2h-.1l-.1.2H67h.4v.1Zm-.7 0h-.2.2Zm.4.3.1-.1V39h.1v-.2h-.2a.7.7 0 0 0 0 .1v.5Zm-4.1 1h.1v-.1Zm3.6-.8.4-.3H67l-.1.2h-.2Zm1.4-.6-.2.1.1.1.2-.2Zm-4.8 1.6.2-.1h-.2Zm4.6-1h.1v-.2h-.1Zm-4.3 1.2v.1h.3v-.1Zm4-1.2-.1.2h.2Zm.2 0v.1h.1Zm.3.2H68v.1l.2-.1Zm.3-.1v.1-.1Zm-1.1.7v-.1l-.1.1H67v.2l.1-.1v-.1ZM89 38.5l-1.5-1.4h-.2c-.2-.1-.3 0-.4 0l-1.3 1.5-.1.2v.3a9.1 9.1 0 0 0 3 2.1 6.8 6.8 0 0 0 2.9.5A3 3 0 0 0 93 41c.5-.4 1-1 1.3-1.6l.2-.5c.4-1.4 0-2.8-1.4-4.2l-.5-.5-.6-.8c-.2-.5-.3-.9-.2-1.3l.4-.7c.3-.3.6-.4 1-.2.1 0 .2.2.1.4 0 .5-.2 1-.3 1.4 0 .2 0 .4.3.5l2.2.6c.2 0 .4 0 .5-.3a28 28 0 0 0 .5-1.7 4 4 0 0 0-.1-1.6c-.4-.8-1.2-1.4-2.3-1.8l-1-.2a4 4 0 0 0-3.6 1c-.7.7-1.1 1.4-1.4 2.2l-.2 1c0 .6.1 1.1.4 1.5l.9 1.3.3.3 1 1.2c.4.4.4.8.3 1.3 0 .3-.2.5-.4.6a1 1 0 0 1-.8 0l-.7-.4Zm5.5-7.3Zm.2.8Zm-.6.6H94h.1Zm-1.4 3.2v.1h-.1v-.2h.1Zm-.8-.2h.2Zm1 .4h-.2.1Zm-.7.5v.1H92v-.2Zm1 .6H93l.1-.1v.1Zm-.4.2h.2Zm.9.7s0 .1-.1 0h-.2l.1-.1h.2Zm-.9-.2Zm.2.5v.1h-.2v-.1h.1Zm.7.3-.1.1v-.1h.1Zm-.7.2v-.2h.2v.1Zm-.1.3v.2h-.3l-.2-.1V39h.2v.1h.2Zm.5.3h-.2l.1-.1h.2Zm-.2.1v-.1.1Zm-.5 0h-.5l.2-.2h.3Zm.5.3v.1H93v-.1l.1-.1Zm-.6 0h-.2v-.2h.3Zm-3.9-1.1h.2Zm3.5 1.2H92v-.1Zm-.8 0v.2-.1Zm1 .4h-.1.2Zm-3.4-1h-.1.1Zm2.5 1h.2-.3Zm-.4 0v-.1Zm-1.9-.2h.2Zm2 .6h.4Zm23.4 0-.1.3-9.7 8.3c-.2.1-.3.2-.5 0l-2.1-1.6c-.3-.1-.3-.3-.1-.5l.5-.8.4-.8.2.1.2.1-.3-.3.4-.6.7-1.2-2.6 2.2-.7.5c-.1.2-.3.2-.4 0l-2.3-1.6c-.3-.2-.3-.4-.2-.6l3.3-5.1 3.5-5.4.3-.2h.3l2 1.3c.1.2.2.4 0 .6l-2.3 3.7 3.6-3h.5l1.2.8c.3.2.5.4.5.8 0 .3 0 .6-.2 1l-1.5 2.6 3.1-2.8h.6l1.6 1.9v.3Zm-8.6-4.5h.1-.1Zm-3.2 3V39Zm-.3 1.7-.1-.1v.1Zm2.4 2.1.2.2V43s0-.1-.1 0Zm.5.4h-.1.1Zm.2.3h.2-.1Zm.9.8h-.2.2Zm-.7-.4h.1Zm.8.7h.1v-.1Zm.8.8v-.4h-.2v.1-.2h-.1v.2c0 .1 0 .2.2.2Zm-1.3-1 .1.1h.2v-.1h-.2Zm-1-.7v-.1Zm.7.7h-.1l.1.3v.2h.1l.1.1V45l-.1-.1v-.5l-.2.1v.1Zm.7.3h-.2l-.1-.1v.2h.2Zm-1.2-.3Zm-.5-.3v-.1Zm.7 1 .2.1h.2l-.2-.1Zm.7.3-.3-.1v.4h-.1v.4h.2v.1h.3V46l-.2-.2h-.1l.3-.1Zm-1.8-1.2v-.1Zm1.9 1.4h.1ZM105 45h.1Zm1.3 1v.2h.2V46h-.2Zm-1-.6v-.2h-.4.1v.1Zm-.7-.6s-.1 0 0 .1l.1.1h-.1v-.2Zm1.9 1.7h-.2v.1h.1Zm-2-1.5v.1-.1Zm.2.3-.1-.1Zm.2.1v.2h.1Zm.3.5v-.1Zm-1.2-1v.2-.2Zm2 2h.3l-.1-.1v-.3l-.2.1v.2Zm-1.8-1.7.1.2v-.2Zm.4.3h.1Zm1.1.8v-.1h-.1Zm-.1 0v.4h.2v-.2h-.1Zm-1-.6h-.2v.2l.1.2v-.2h.1l.1.3c0 .1.1.2 0 .2h-.2a.8.8 0 0 1-.3 0l.2.2-.1.1h.4l.1-.2h.3l-.1-.1v-.2h.4l-.2-.2c0 .1-.1.1-.2 0h.1v-.1h-.1l-.1-.1v.2h-.1v-.2ZM106 47v-.2h-.1v.1l-.1-.2h-.2l-.1.1.2.1Zm-2-1.5.2-.1Zm2.2 1.5Zm-2.6-1.6h.1Zm1 .7V46h-.2Zm-.7-.3.1.2v.3-.3h.2l-.3-.2Zm1.3 1.7h.2v-.3l-.1-.2h.2l-.2-.2h-.1v.5h-.7.5s.2 0 .2.2Zm.7-.1v-.1h-.2Zm-2-1.5v.1h-.2c0 .2 0 .2-.1.1h.1l.1.1Zm1.8 1.4h-.1Zm-1.3-.6v-.1h-.1Zm-.2 0v.1l.1.2h.4l-.1-.1h-.2v.1h-.1Zm-.2 0h.1Zm.8 1v.1h.2v-.1h.1v-.2l-.2-.1h-.1l.1.2Zm-.4-.6h-.1l.3.3v-.2h-.2Zm.8.6.1.1v-.2Zm-2-1.4v-.1h-.1Zm.3.3Zm.3.4.1.1V47h.1c0-.1-.1-.1-.1 0Zm-.6-.5Zm1.4 1-.2.1h.2l-.1-.1Zm.7.6h-.4V48h-.2v.2l.2.1Zm-1.6-1V47h-.1v.2Zm-.6-.3h.1v-.1h-.2l.1.1Zm1.7 1h-.1Zm-.5.5h.2v-.1h-.5l-.1-.1h-.1v-.2h-.1v-.2l.4.2-.2-.2v-.2h-.5.1v.3s.1 0 0 .1l-.1-.2v.2l.4.4Zm-1.4-1.8h-.4.1Zm.4.6V47Zm1.1.7.1.2Zm.3.3h-.1Zm-1.8-1h.1v-.3c-.1 0 0 .1 0 .2Zm12.7 16.2h-.3s-.2 0-.2-.2l-1.6-2.5c-.1-.2 0-.4.1-.5l2-1.5-2-2.2-1.9.5c-.2.1-.3 0-.4-.1l-1.5-2.6V54l.3-.3a156 156 0 0 1 8.2-2 118.8 118.8 0 0 1 5.2-.5l.2.3.7.7.3.5.2.4c.3.6.2 1.3-.3 2a37.9 37.9 0 0 1-2.6 2.7l-6.3 5.5Zm7.4-11.8h.1v-.1h-.1Zm.8 2.4.2-.1v-.1h-.2Zm-.3 0h.1v-.2l-.1.1Zm-1.2-2-.2.1h.3Zm1.3 2.2h.1V54h-.2v.1h.1Zm-.1 0v-.2Zm.1.3h-.2l.1.3h.1v-.1h.1v-.2Zm-.5.3s0-.1 0 0c-.1 0 0 0 0 0v.1-.1Zm-1-1.3h.1Zm0 .3v.1h.1v-.2Zm.6 1.6c0-.1 0-.1-.1 0l.1.1v-.1Zm-2.9-3.4h-.2v.2h.1l.1-.2Zm.5 1.4Zm-1.2-1v.1l.3-.1Zm1.4 2-.3-.2v.3h.2v-.1Zm1 1.8v.1h.1v-.1Zm-.1.4v-.2h-.1Zm-2.8-.4.7-.6 1-.9-3.3.9.8 1.2Zm1.2-1.7h.2Zm1 1.6Zm-2.3-1.5a.6.6 0 0 0 .4 0h.6v-.1h-.2v-.1a3.3 3.3 0 0 1-.6 0h-.2l-.5.2h-.9l-.1.1h-.2l-.3.1h-.2l-.1.2h1.2l.4-.2h.5Zm1.8 2.1Zm0 .5v-.2.2Zm-.5-.8Zm0 1.2Zm-.8-1v-.1Zm.2.7.1-.3h-.1l-.1.2v.1h.1Zm.4.4h.1Zm-.1-.3v.1-.1Zm0 .4v.2c.1 0 .1-.1 0-.2Zm-.6-.3.1.1h.1v-.1h-.2Zm-.3-.8v.2Zm.8 1.6v-.3h-.2v-.1c-.1 0-.2.1-.3.4l.1.2h.1V58l.2.1h.1ZM117 54h-.2v.2h.2V54Zm2 3.4v-.1h-.1v.1Zm0 .3h-.2.2Zm-.3-.4-.1-.1v.4h.1s.1.1.1 0Zm-.3 0Zm-.1.4v-.2.2Zm-.2-.3Zm.4 1c0-.1 0-.1 0 0Zm-.3 0 .1-.1v-.4l-.1.3h-.1Zm-.4-1v.1Zm.8 1.8V59Zm-.8-1.2h.1Zm-.3-.3v-.1Zm-.5-.7v.2Zm0 .6h.1Zm.3.6h-.1v.2h.2v-.1Zm-.2.7Zm-.2-.3v.2Zm.3.8v.4l.1.1v-.2h.2l-.2-.1Zm-2.3-3.8v.2h.1Zm-.5 0 .1-.1v-.3l-.2-.1-.1.2v.1l.2.3Zm2 2.7h-.1v.1h.1Zm1 2h.1v-.1Zm-1-1.8v.1l.1.2Zm-.5-.8Zm-.6 4.2v.1l.4-.3.4-.3v-.1l.1-.1h.2V61h.2l.2-.3v-.1h.2l.2-.2h-.4v-.2h.2c0-.1.1 0 .2 0v.2l.1-.1V60l-.2-.2h-.3v.1l-.1.2h-.1c0-.2-.2-.2-.2-.2h-.1v.2h-.5l-.1.1v.2c0 .2 0 .2-.1.1v.2l.1.1.1.1-.2.2h-.1v.2l-.2.1v.3h-.2v.2Zm-1.9-7.6c.1 0 .1 0 0 0Zm.2 1v-.1Zm2.6 4.6v-.2l-.1.1ZM113 55c.1 0 .1 0 0-.2Zm2.6 4v.2Zm0 .6v-.2Zm-3-4.5h.1l.2.1V55l-.3-.3v.4Zm2.8 4.4v-.1h-.1l.1.2Zm-2.7-3.5h.1v-.1h-.1Zm-.5-.7v-.1s0-.1-.2 0h.1Zm0 .3h.1s.1 0 0 0v-.2ZM115 60h-.1Zm-.7.7.2-.2-.1-.1-.1.1v.2Zm14 14-.7.2a5.2 5.2 0 0 1-3.2-.4h.7l.3-.1h.2s0-.1 0 0l.2-.1-1.4.2c-.5-.2-.9-.5-1.2-1a11 11 0 0 1-1.6-2.8l-.1-.1v-.4h-.1l-.2-.5-3.5.5c-.3 0-.4 0-.4-.3l-.5-2.4v-.3l.4-.2 1.4-.2.1.3v-.2l1-.2 9.4-1.3c.2 0 .3 0 .4.2a80.2 80.2 0 0 1 1.7 4.4v.6h.1c.1 1 0 1.9-.6 2.6-.5.7-1.3 1.2-2.4 1.5Zm0-8.5Zm-4 3 .4 1c.3.6.6 1 1 1.3a1.5 1.5 0 0 0 1.2.3l1-.5c.2-.2.3-.5.2-.8v-.1l-.6-1.5Zm4.1 3.4v.1Zm-.3-1h-.1v.1Zm-1.2-5.4Zm1 6h.1Zm-.5.3.1-.2h-.2v.2Zm-.4 0v.1h.2-.1v-.1l-.1-.1Zm-.1.4.1-.1s-.1 0 0 0Zm-.4-.6v-.1Zm-.3 0h.2l-.1-.1Zm.1.2.1.2v-.2Zm0 1.7h.3c0-.1 0 0-.1 0l-.1-.2h-.1v.2Zm-.2-1.8v.3-.2Zm0 .2-.1-.1v.1Zm.2 1.6h-.5v.1h.5Zm-1-2 .2-.1Zm-.7.4v.2Zm-.3-.3.1-.2h-.1Zm0-.5v.1Zm-1.2-4.2.1-.1.1-.1v-.1h-.1v.2Zm1 4.3h-.1v.2h.1Zm-1-4.7V67Zm.6 2.8h-.1Zm-.8-2.7v.3l.1-.2v-.2h-.1Zm1 5v.1Zm-.5-1.1V71h-.1v.2-.1h.1Zm0 .7h.1v-.2Zm-.8-4.7h-.1v.1Zm.7 4.4h.1v-.2l-.1.2Zm-.8-4.3h-.1Zm.5 3h-.1v.2Zm-.5-2.6v.2Zm.6 3.7-.2-.1v.4h.1v-.2Zm-.2.5v-.2.1Zm-.3-.5v.1h.2v-.1Zm-.7-4.3h.1Zm.9 5h-.1.1Zm-.5-2h-.1v.2Zm.2 1.6v.1h.1v-.1Zm-.7-4v-.1.1Zm.6 4.3v-.1Zm-.1-.2v-.2Zm-.9-4.5h-.1.1Zm.3 2.8v.1Zm-.5-2.7H120l-.1-.1h-.5a.6.6 0 0 0-.5.1h-1.5l-.2.2v.5Zm-.8-.6v-.1Zm-.3 0v-.1h-.1v.2Zm-.3 0v.1-.2.1Zm-.1.1v-.1Zm.1 1.8h-.1.2Zm-.6-2v.2Zm.2 2h-.1s0 .1 0 0h-.2l-.2.2.7-.1Zm-1-1.8Zm-1 3h-.1Zm0 0"/>
</svg>
